<svg width="331" height="331" viewBox="0 0 331 331" fill="none" xmlns="http://www.w3.org/2000/svg">
<g filter="url(#filter0_d_64_5)">
<rect width="140.558" height="35.1394" transform="matrix(0.7099 -0.704302 0.7099 0.704302 178.407 114.995)" fill="white"/>
<path d="M175.887 10C175.887 4.47715 180.364 0 185.887 0H307C312.523 0 317 4.47715 317 10V130C317 135.523 312.523 140 307 140H291.218C285.695 140 281.218 135.523 281.218 130V41.5C281.218 35.9771 276.741 31.5 271.218 31.5H185.887C180.364 31.5 175.887 27.0228 175.887 21.5V10Z" fill="white"/>
<path fill-rule="evenodd" clip-rule="evenodd" d="M120.45 317C186.973 317 240.9 263.498 240.9 197.5C240.9 131.502 186.973 78 120.45 78C53.9273 78 0 131.502 0 197.5C0 263.498 53.9273 317 120.45 317ZM120.954 279C166.601 279 203.606 242.287 203.606 197C203.606 151.713 166.601 115 120.954 115C75.3065 115 38.3021 151.713 38.3021 197C38.3021 242.287 75.3065 279 120.954 279Z" fill="white"/>
</g>
<defs>
<filter id="filter0_d_64_5" x="0" y="0" width="331" height="331" filterUnits="userSpaceOnUse" color-interpolation-filters="sRGB">
<feFlood flood-opacity="0" result="BackgroundImageFix"/>
<feColorMatrix in="SourceAlpha" type="matrix" values="0 0 0 0 0 0 0 0 0 0 0 0 0 0 0 0 0 0 127 0" result="hardAlpha"/>
<feOffset dx="10" dy="10"/>
<feGaussianBlur stdDeviation="2"/>
<feComposite in2="hardAlpha" operator="out"/>
<feColorMatrix type="matrix" values="0 0 0 0 0 0 0 0 0 0 0 0 0 0 0 0 0 0 0.25 0"/>
<feBlend mode="plus-darker" in2="BackgroundImageFix" result="effect1_dropShadow_64_5"/>
<feBlend mode="normal" in="SourceGraphic" in2="effect1_dropShadow_64_5" result="shape"/>
</filter>
</defs>
</svg>
