<svg width="198" height="331" viewBox="0 0 198 331" fill="none" xmlns="http://www.w3.org/2000/svg">
<g filter="url(#filter0_d_64_16)">
<path fill-rule="evenodd" clip-rule="evenodd" d="M92 183.002C142.535 183.002 183.501 142.036 183.501 91.5012C183.501 40.9665 142.535 0 92 0C41.4653 0 0.498779 40.9665 0.498779 91.5012C0.498779 142.036 41.4653 183.002 92 183.002ZM92.3828 153.906C127.059 153.906 155.17 125.795 155.17 91.1184C155.17 56.4418 127.059 28.3309 92.3828 28.3309C57.7063 28.3309 29.5954 56.4418 29.5954 91.1184C29.5954 125.795 57.7063 153.906 92.3828 153.906Z" fill="white"/>
<rect x="15.0471" y="205.974" width="153.14" height="34.4565" rx="17.2283" fill="white"/>
<rect x="109.228" y="163.86" width="153.14" height="34.4565" rx="17.2283" transform="rotate(90 109.228 163.86)" fill="white"/>
</g>
<defs>
<filter id="filter0_d_64_16" x="0.498779" y="0" width="197.002" height="331" filterUnits="userSpaceOnUse" color-interpolation-filters="sRGB">
<feFlood flood-opacity="0" result="BackgroundImageFix"/>
<feColorMatrix in="SourceAlpha" type="matrix" values="0 0 0 0 0 0 0 0 0 0 0 0 0 0 0 0 0 0 127 0" result="hardAlpha"/>
<feOffset dx="10" dy="10"/>
<feGaussianBlur stdDeviation="2"/>
<feComposite in2="hardAlpha" operator="out"/>
<feColorMatrix type="matrix" values="0 0 0 0 0 0 0 0 0 0 0 0 0 0 0 0 0 0 0.25 0"/>
<feBlend mode="plus-darker" in2="BackgroundImageFix" result="effect1_dropShadow_64_16"/>
<feBlend mode="normal" in="SourceGraphic" in2="effect1_dropShadow_64_16" result="shape"/>
</filter>
</defs>
</svg>
