<?xml version="1.0" encoding="UTF-8"?>
<svg id="_レイヤー_1" xmlns="http://www.w3.org/2000/svg" version="1.1" viewBox="0 0 1253.5 841.9">
  <!-- Generator: Adobe Illustrator 29.0.1, SVG Export Plug-In . SVG Version: 2.1.0 Build 192)  -->
  <defs>
    <style>
      .st0, .st1, .st2, .st3, .st4 {
        font-family: HiraKakuStd-W8-83pv-RKSJ-H, 'Hiragino Kaku Gothic Std';
      }

      .st0, .st1, .st2, .st3, .st4, .st5 {
        isolation: isolate;
      }

      .st0, .st1, .st2, .st4 {
        font-size: 16.6px;
      }

      .st0, .st6 {
        fill: #d5f2d6;
      }

      .st1, .st7 {
        fill: #bff5ff;
      }

      .st8, .st4 {
        fill: #fec693;
      }

      .st2, .st9 {
        fill: #f9ff57;
      }

      .st3 {
        font-size: 24.2px;
      }

      .st3, .st10, .st11, .st12, .st13, .st14, .st15 {
        fill: #fff;
      }

      .st10 {
        stroke: #d5f2d6;
      }

      .st10, .st13, .st14, .st15 {
        stroke-miterlimit: 10;
        stroke-width: 3.5px;
      }

      .st12 {
        font-family: ToppanBunkyuMidashiGothicStdN-ExtraBold-83pv-RKSJ-H, 'Toppan Bunkyu Midashi Gothic';
        font-size: 29.3px;
        font-weight: 700;
      }

      .st13 {
        stroke: #bff5ff;
      }

      .st14 {
        stroke: #f9ff57;
      }

      .st15 {
        stroke: #fec693;
      }
    </style>
  </defs>
  <path class="st7" d="M440.2,65.7c-38.4-40.3-100.5-40.3-138.9,0-38.4-40.3-100.5-40.3-138.9,0-38.3,40.3-38.3,105.5,0,145.8h0l138.9,145.8,138.9-145.8c38.4-40.3,38.4-105.5,0-145.8h0Z"/>
  <path class="st13" d="M548.9,384.4"/>
  <line class="st13" x1="385.2" y1="167.5" x2="388" y2="152.3"/>
  <path class="st13" d="M418,222.6h94.5c4.6,0,8.3-3.9,8.3-8.7s-3.7-8.7-8.3-8.7h-3.1s-54.8,0-54.8,0h-10.5c0-.1-30.2-.2-28.9-.3l-35.8.3s0,0,0,0h-76.3s0,0,0,0l-1.5-6.5-3.7-15.4-5.6-20.1h0s-7.6-22.3-7.6-22.3c-1-3-5.2-2.9-6.2,0l-6.8,20.4-6.4,21.4-4.6,17.7-1.4,4.8s0,0,0,0h-15c-2.8,0-5.2,1.9-6,4.5l-7.1,25.6s0,0,0,0l-7.5-26.4c-.6-2.2-2.6-3.7-4.9-3.7h-15.9s0,0,0,0l-8.2-11.4-7.4-10.2c-1.4-2-4.4-2-5.8,0l-7.3,10-9,11.7s0,0,0,0h-73.6c-5,0-8.9,4.2-8.6,9.2s4.3,8.1,9,8.1h2.8s52.2,0,52.2,0h24.5c1.9,0,3.6-1,4.5-2.6l3.7-6.2,4.5-7.3c0,0,.1,0,.2,0l4.6,7.4,3.9,6c1.1,1.7,3,2.7,5,2.7h11.4s0,0,0,0l6,15,6.1,14.5,5,11.4h0s2.8,5.3,2.8,5.3c1.6,3,6,2.8,7.2-.4l2.3-5.9,2.8-7.8,3.5-10,4-11.5,3.5-10.2s0,0,0,0l17.6-.3c3.4,0,6.3-2.6,6.8-6l4.5-31.1c0,0,0,0,0,0l5.1,32c.4,2.8,2.9,4.9,5.7,4.9h126.3Z"/>
  <path class="st13" d="M390.7,135.7"/>
  <g>
    <text class="st12" transform="translate(306.1 197.5)"><tspan x="0" y="0">ハートヒート</tspan></text>
    <g>
      <polygon class="st11" points="403.7 178.3 402 180 400.3 178.3 402 176.9 403.7 178.3"/>
      <path class="st11" d="M402.1,177.4c0,.7-.3,1.2-1,1.2s-1.2-.5-1.2-1.2.5-1.2,1.2-1.2,1,.5,1,1.2Z"/>
      <path class="st11" d="M404.1,177.4c0,.7-.5,1.2-1.2,1.2s-1-.6-1-1.2.3-1.2,1-1.2,1.2.5,1.2,1.2h0Z"/>
    </g>
    <g>
      <polygon class="st11" points="407.5 175.9 405.8 177.6 404.1 175.9 405.8 174.5 407.5 175.9"/>
      <path class="st11" d="M405.9,175c0,.7-.3,1.2-1,1.2s-1.2-.5-1.2-1.2.5-1.2,1.2-1.2,1,.5,1,1.2Z"/>
      <path class="st11" d="M407.9,175c0,.7-.5,1.2-1.2,1.2s-1-.6-1-1.2.3-1.2,1-1.2,1.2.5,1.2,1.2h0Z"/>
    </g>
  </g>
  <g>
    <rect class="st11" x="306.1" y="105.4" width="101.8" height="30.3"/>
    <g class="st5">
      <g class="st5">
        <text class="st1" transform="translate(315.8 127.1)"><tspan x="0" y="0">VANTAN</tspan></text>
      </g>
    </g>
  </g>
  <g class="st5">
    <g class="st5">
      <text class="st3" transform="translate(306.1 165.9)"><tspan x="0" y="0">恋愛</tspan></text>
    </g>
  </g>
  <path class="st8" d="M1071.9,66.8c-38.4-40.3-100.5-40.3-138.9,0-38.4-40.3-100.5-40.3-138.9,0-38.3,40.3-38.3,105.5,0,145.8h0l138.9,145.8,138.9-145.8c38.4-40.3,38.4-105.5,0-145.8h0Z"/>
  <path class="st15" d="M1049.6,223.8h94.5c4.6,0,8.3-3.9,8.3-8.7s-3.7-8.7-8.3-8.7h-3.1s-54.8,0-54.8,0h-10.5c0-.1-30.2-.2-28.9-.3l-35.8.3s0,0,0,0h-76.3s0,0,0,0l-1.5-6.5-3.7-15.4-5.6-20.1h0s-7.6-22.3-7.6-22.3c-1-3-5.2-2.9-6.2,0l-6.8,20.4-6.4,21.4-4.6,17.7-1.4,4.8s0,0,0,0h-15c-2.8,0-5.2,1.9-6,4.5l-7.1,25.6s0,0,0,0l-7.5-26.4c-.6-2.2-2.6-3.7-4.9-3.7h-15.9s0,0,0,0l-8.2-11.4-7.4-10.2c-1.4-2-4.4-2-5.8,0l-7.3,10-9,11.7s0,0,0,0h-73.6c-5,0-8.9,4.2-8.6,9.2s4.3,8.1,9,8.1h2.8s52.2,0,52.2,0h24.5c1.9,0,3.6-1,4.5-2.6l3.7-6.2,4.5-7.3c0,0,.1,0,.2,0l4.6,7.4,3.9,6c1.1,1.7,3,2.7,5,2.7h11.4s0,0,0,0l6,15,6.1,14.5,5,11.4h0s2.8,5.3,2.8,5.3c1.6,3,6,2.8,7.2-.4l2.3-5.9,2.8-7.8,3.5-10,4-11.5,3.5-10.2s0,0,0,0l17.6-.3c3.4,0,6.3-2.6,6.8-6l4.5-31.1c0,0,0,0,0,0l5.1,32c.4,2.8,2.9,4.9,5.7,4.9h126.3Z"/>
  <path class="st13" d="M1022.3,136.8"/>
  <g>
    <text class="st12" transform="translate(937.7 198.6)"><tspan x="0" y="0">ハートヒート</tspan></text>
    <g>
      <polygon class="st11" points="1035.3 179.4 1033.6 181.1 1031.9 179.4 1033.6 178 1035.3 179.4"/>
      <path class="st11" d="M1033.7,178.5c0,.7-.3,1.2-1,1.2s-1.2-.5-1.2-1.2.5-1.2,1.2-1.2,1,.5,1,1.2Z"/>
      <path class="st11" d="M1035.7,178.5c0,.7-.5,1.2-1.2,1.2s-1-.6-1-1.2.3-1.2,1-1.2,1.2.5,1.2,1.2h0Z"/>
    </g>
    <g>
      <polygon class="st11" points="1039.1 177 1037.4 178.7 1035.7 177 1037.4 175.6 1039.1 177"/>
      <path class="st11" d="M1037.5,176.1c0,.7-.3,1.2-1,1.2s-1.2-.5-1.2-1.2.5-1.2,1.2-1.2,1,.5,1,1.2Z"/>
      <path class="st11" d="M1039.5,176.1c0,.7-.5,1.2-1.2,1.2s-1-.6-1-1.2.3-1.2,1-1.2,1.2.5,1.2,1.2h0Z"/>
    </g>
  </g>
  <g>
    <rect class="st11" x="937.7" y="106.5" width="101.8" height="30.3"/>
    <g class="st5">
      <g class="st5">
        <text class="st4" transform="translate(947.4 128.2)"><tspan x="0" y="0">VANTAN</tspan></text>
      </g>
    </g>
  </g>
  <g class="st5">
    <g class="st5">
      <text class="st3" transform="translate(937.7 167.1)"><tspan x="0" y="0">恋愛</tspan></text>
    </g>
  </g>
  <path class="st9" d="M440.2,507.7c-38.4-40.3-100.5-40.3-138.9,0-38.4-40.3-100.5-40.3-138.9,0-38.3,40.3-38.3,105.5,0,145.8h0l138.9,145.8,138.9-145.8c38.4-40.3,38.4-105.5,0-145.8h0Z"/>
  <path class="st14" d="M418,664.7h94.5c4.6,0,8.3-3.9,8.3-8.7s-3.7-8.7-8.3-8.7h-3.1s-54.8,0-54.8,0h-10.5c0-.1-30.2-.2-28.9-.3l-35.8.3s0,0,0,0h-76.3s0,0,0,0l-1.5-6.5-3.7-15.4-5.6-20.1h0s-7.6-22.3-7.6-22.3c-1-3-5.2-2.9-6.2,0l-6.8,20.4-6.4,21.4-4.6,17.7-1.4,4.8s0,0,0,0h-15c-2.8,0-5.2,1.9-6,4.5l-7.1,25.6s0,0,0,0l-7.5-26.4c-.6-2.2-2.6-3.7-4.9-3.7h-15.9s0,0,0,0l-8.2-11.4-7.4-10.2c-1.4-2-4.4-2-5.8,0l-7.3,10-9,11.7s0,0,0,0h-73.6c-5,0-8.9,4.2-8.6,9.2s4.3,8.1,9,8.1h2.8s52.2,0,52.2,0h24.5c1.9,0,3.6-1,4.5-2.6l3.7-6.2,4.5-7.3c0,0,.1,0,.2,0l4.6,7.4,3.9,6c1.1,1.7,3,2.7,5,2.7h11.4s0,0,0,0l6,15,6.1,14.5,5,11.4h0s2.8,5.3,2.8,5.3c1.6,3,6,2.8,7.2-.4l2.3-5.9,2.8-7.8,3.5-10,4-11.5,3.5-10.2s0,0,0,0l17.6-.3c3.4,0,6.3-2.6,6.8-6l4.5-31.1c0,0,0,0,0,0l5.1,32c.4,2.8,2.9,4.9,5.7,4.9h126.3Z"/>
  <path class="st13" d="M390.7,577.7"/>
  <g>
    <text class="st12" transform="translate(306.1 639.5)"><tspan x="0" y="0">ハートヒート</tspan></text>
    <g>
      <polygon class="st11" points="403.7 620.3 402 622 400.3 620.3 402 618.9 403.7 620.3"/>
      <path class="st11" d="M402.1,619.4c0,.7-.3,1.2-1,1.2s-1.2-.5-1.2-1.2.5-1.2,1.2-1.2,1,.5,1,1.2Z"/>
      <path class="st11" d="M404.1,619.4c0,.7-.5,1.2-1.2,1.2s-1-.6-1-1.2.3-1.2,1-1.2,1.2.5,1.2,1.2h0Z"/>
    </g>
    <g>
      <polygon class="st11" points="407.5 617.9 405.8 619.6 404.1 617.9 405.8 616.5 407.5 617.9"/>
      <path class="st11" d="M405.9,617c0,.7-.3,1.2-1,1.2s-1.2-.5-1.2-1.2.5-1.2,1.2-1.2,1,.5,1,1.2Z"/>
      <path class="st11" d="M407.9,617c0,.7-.5,1.2-1.2,1.2s-1-.6-1-1.2.3-1.2,1-1.2,1.2.5,1.2,1.2h0Z"/>
    </g>
  </g>
  <g>
    <rect class="st11" x="306.1" y="547.4" width="101.8" height="30.3"/>
    <g class="st5">
      <g class="st5">
        <text class="st2" transform="translate(315.8 569.1)"><tspan x="0" y="0">VANTAN</tspan></text>
      </g>
    </g>
  </g>
  <g class="st5">
    <g class="st5">
      <text class="st3" transform="translate(306.1 608)"><tspan x="0" y="0">恋愛</tspan></text>
    </g>
  </g>
  <path class="st6" d="M1071.6,516.2c-38.4-40.3-100.5-40.3-138.9,0-38.4-40.3-100.5-40.3-138.9,0-38.3,40.3-38.3,105.5,0,145.8h0l138.9,145.8,138.9-145.8c38.4-40.3,38.4-105.5,0-145.8h0Z"/>
  <path class="st10" d="M1049.4,673.1h94.5c4.6,0,8.3-3.9,8.3-8.7s-3.7-8.7-8.3-8.7h-3.1s-54.8,0-54.8,0h-10.5c0-.1-30.2-.2-28.9-.3l-35.8.3s0,0,0,0h-76.3s0,0,0,0l-1.5-6.5-3.7-15.4-5.6-20.1h0s-7.6-22.3-7.6-22.3c-1-3-5.2-2.9-6.2,0l-6.8,20.4-6.4,21.4-4.6,17.7-1.4,4.8s0,0,0,0h-15c-2.8,0-5.2,1.9-6,4.5l-7.1,25.6s0,0,0,0l-7.5-26.4c-.6-2.2-2.6-3.7-4.9-3.7h-15.9s0,0,0,0l-8.2-11.4-7.4-10.2c-1.4-2-4.4-2-5.8,0l-7.3,10-9,11.7s0,0,0,0h-73.6c-5,0-8.9,4.2-8.6,9.2s4.3,8.1,9,8.1h2.8s52.2,0,52.2,0h24.5c1.9,0,3.6-1,4.5-2.6l3.7-6.2,4.5-7.3c0,0,.1,0,.2,0l4.6,7.4,3.9,6c1.1,1.7,3,2.7,5,2.7h11.4s0,0,0,0l6,15,6.1,14.5,5,11.4h0s2.8,5.3,2.8,5.3c1.6,3,6,2.8,7.2-.4l2.3-5.9,2.8-7.8,3.5-10,4-11.5,3.5-10.2s0,0,0,0l17.6-.3c3.4,0,6.3-2.6,6.8-6l4.5-31.1c0,0,0,0,0,0l5.1,32c.4,2.8,2.9,4.9,5.7,4.9h126.3Z"/>
  <path class="st13" d="M1022.1,586.2"/>
  <g>
    <text class="st12" transform="translate(937.5 648)"><tspan x="0" y="0">ハートヒート</tspan></text>
    <g>
      <polygon class="st11" points="1035.1 628.8 1033.4 630.5 1031.7 628.8 1033.4 627.4 1035.1 628.8"/>
      <path class="st11" d="M1033.4,627.9c0,.7-.3,1.2-1,1.2s-1.2-.5-1.2-1.2.5-1.2,1.2-1.2,1,.5,1,1.2Z"/>
      <path class="st11" d="M1035.5,627.9c0,.7-.5,1.2-1.2,1.2s-1-.6-1-1.2.3-1.2,1-1.2,1.2.5,1.2,1.2h0Z"/>
    </g>
    <g>
      <polygon class="st11" points="1038.9 626.4 1037.2 628.1 1035.5 626.4 1037.2 625 1038.9 626.4"/>
      <path class="st11" d="M1037.3,625.5c0,.7-.3,1.2-1,1.2s-1.2-.5-1.2-1.2.5-1.2,1.2-1.2,1,.5,1,1.2Z"/>
      <path class="st11" d="M1039.3,625.5c0,.7-.5,1.2-1.2,1.2s-1-.6-1-1.2.3-1.2,1-1.2,1.2.5,1.2,1.2h0Z"/>
    </g>
  </g>
  <g>
    <rect class="st11" x="937.5" y="555.9" width="101.8" height="30.3"/>
    <g class="st5">
      <g class="st5">
        <text class="st0" transform="translate(947.1 577.6)"><tspan x="0" y="0">VANTAN</tspan></text>
      </g>
    </g>
  </g>
  <g class="st5">
    <g class="st5">
      <text class="st3" transform="translate(937.5 616.4)"><tspan x="0" y="0">恋愛</tspan></text>
    </g>
  </g>
</svg>