<?xml version="1.0" encoding="UTF-8"?>
<svg id="_レイヤー_1" xmlns="http://www.w3.org/2000/svg" version="1.1" viewBox="0 0 1253.5 841.9">
  <!-- Generator: Adobe Illustrator 29.0.1, SVG Export Plug-In . SVG Version: 2.1.0 Build 192)  -->
  <defs>
    <style>
      .st0 {
        font-size: 37.8px;
      }

      .st0, .st1 {
        font-family: HiraKakuStd-W8-83pv-RKSJ-H, 'Hiragino Kaku Gothic Std';
      }

      .st0, .st1, .st2, .st3 {
        isolation: isolate;
      }

      .st0, .st4 {
        fill: #bff5ff;
      }

      .st1 {
        font-size: 54.9px;
      }

      .st1, .st5, .st6, .st3 {
        fill: #fff;
      }

      .st7 {
        fill: none;
      }

      .st7, .st6 {
        stroke: #bff5ff;
        stroke-miterlimit: 10;
        stroke-width: 3.5px;
      }

      .st3 {
        font-family: HiraKakuStdN-W8-83pv-RKSJ-H, 'Hiragino Kaku Gothic StdN';
        font-size: 58.4px;
      }
    </style>
  </defs>
  <path class="st4" d="M958.1,137.5c-87.2-91.5-228.4-91.5-315.6,0-87.2-91.5-228.4-91.5-315.6,0-87.2,91.5-87.2,239.8,0,331.3h0l315.6,331.3,315.6-331.3c87.2-91.5,87.2-239.8,0-331.3h0Z"/>
  <path class="st6" d="M538.9,403.4"/>
  <line class="st7" x1="799.1" y1="373.8" x2="805.5" y2="339.1"/>
  <path class="st6" d="M873.6,499h214.8c10.4,0,18.9-8.8,18.9-19.7s-8.5-19.7-18.9-19.7h-131.5l-23.7-.2s-68.6-.2-65.8-.4l-81.4.6h-173.6l-3.3-14.8-8.5-35-12.8-45.7h0l-17.3-50.7c-2.3-6.7-11.9-6.7-14.1,0l-15.4,46.4-14.7,48.6-10.3,40.3-3.3,10.9h-34.1c-6.3,0-11.8,4.2-13.5,10.3l-16.1,58.2c0,.1-.2.1-.2,0l-17.2-60c-1.4-5-6-8.5-11.2-8.5h-36.1l-18.6-26-16.9-23.2c-3.3-4.5-10-4.5-13.3,0l-16.7,22.7-20.6,26.6h-167.3c-11.3,0-20.3,9.5-19.6,20.9s9.9,18.5,20.4,18.5h180.7c4.2,0,8.1-2.2,10.3-5.8l8.4-14.1,10.2-16.7c.1-.2.3-.2.4,0l10.5,16.9,8.9,13.6c2.5,3.8,6.7,6.1,11.3,6.1h25.9l13.6,34.1,13.8,32.9,11.3,25.9h0l6.3,12.1c3.6,6.9,13.6,6.4,16.5-.9l5.2-13.4,6.4-17.6,7.9-22.8,9-26.1,7.9-23.3h0l40-.6c7.8-.1,14.3-5.9,15.5-13.6l10.2-70.6c0-.1.2-.1.2,0l11.5,72.7c1,6.4,6.5,11.1,13,11.1h287Z"/>
  <path class="st6" d="M811.6,301.4"/>
  <g>
    <polygon class="st5" points="847.8 397.2 844.4 400.6 841 397.2 844.4 394.4 847.8 397.2"/>
    <path class="st5" d="M844.6,395.4c0,1.3-.6,2.4-2,2.4s-2.4-1.1-2.4-2.4,1.1-2.4,2.4-2.4,2,1.1,2,2.4Z"/>
    <path class="st5" d="M848.6,395.4c0,1.3-1.1,2.4-2.4,2.4s-2-1.1-2-2.5.6-2.4,2-2.4,2.4,1.1,2.4,2.4h0Z"/>
  </g>
  <text class="st3" transform="translate(619.4 446.2)"><tspan x="0" y="0">ハートヒート</tspan></text>
  <g>
    <polygon class="st5" points="840.1 403.6 836.7 407 833.3 403.6 836.7 400.8 840.1 403.6"/>
    <path class="st5" d="M836.8,401.8c0,1.3-.6,2.4-2,2.4s-2.4-1.1-2.4-2.4,1.1-2.4,2.4-2.4,2,1.1,2,2.4Z"/>
    <path class="st5" d="M840.9,401.8c0,1.3-1.1,2.4-2.4,2.4s-2-1.1-2-2.5.6-2.4,2-2.4,2.4,1.1,2.4,2.4h0Z"/>
  </g>
  <g>
    <rect class="st5" x="619.4" y="232.5" width="231.3" height="68.9"/>
    <g class="st2">
      <g class="st2">
        <g class="st2">
          <g class="st2">
            <text class="st0" transform="translate(641.3 281.8)"><tspan x="0" y="0">VANTAN</tspan></text>
          </g>
        </g>
      </g>
    </g>
  </g>
  <g class="st2">
    <g class="st2">
      <g class="st2">
        <g class="st2">
          <text class="st1" transform="translate(619.4 370.2)"><tspan x="0" y="0">恋愛</tspan></text>
        </g>
      </g>
    </g>
  </g>
</svg>