<svg width="946" height="78" viewBox="0 0 946 78" fill="none" xmlns="http://www.w3.org/2000/svg">
<path d="M57.2355 11L48.289 20.5L23.9346 16L13 45L23.9346 58.5H51.5L48.289 65L98.5 62L125.328 51.5V65L173.043 62L260.5 65L277.5 55L273.443 62L348.494 69.5L380 62L471 58.5L511.5 65L524.5 58.5L667.09 65L655 46L680.5 58.5L804.767 65L885.5 67.5L903 61L894.5 54.5L927 57L933 28L917.095 20.5L896 25.5L910.137 11L890.255 8L793.335 20.5L672.557 14.5L640.25 23.5L652.5 9L602.5 14.5L584.5 23.5L575 14.5L548.797 11L545 23.5L430.504 11L427 23.5L424.043 11L319 20.5L198.392 11L177.019 20.5L161.115 8V20.5L57.2355 11Z" fill="#EF2D56"/>
</svg>
