<svg width="1920" height="426" viewBox="0 0 1920 426" fill="none" xmlns="http://www.w3.org/2000/svg">
<g clip-path="url(#clip0_2_3)">
<path d="M103.5 29.5L4 10L-19 24.5V-31H1938.5V37.5L1872.5 2.5L1848.5 54.5V10L1807.5 24.5L1727.5 10H1533.5L1401.5 12L1389 39V24.5L1378 45V10L1317 18.5L1311 26L1307 10L1225 18L941 10L939 21.5L912.5 10V37.5L901.5 10H693L682.5 54L673.5 10L574.5 24.5L460 10H347V24.5L337 10H228.5L217.5 74L202 10L103.5 29.5Z" fill="#C7B28F"/>
<path d="M212 139L217.5 97.5V166L212 139Z" fill="#C7B28F"/>
<path d="M1848.5 85V63L1844.5 74L1848.5 85Z" fill="#C7B28F"/>
<path d="M1382.5 68L1378 53V83L1382.5 68Z" fill="#C7B28F"/>
</g>
<defs>
<clipPath id="clip0_2_3">
<rect width="1920" height="426" fill="white"/>
</clipPath>
</defs>
</svg>
