<svg width="644" height="78" viewBox="0 0 644 78" fill="none" xmlns="http://www.w3.org/2000/svg">
<path d="M35.2437 7.92857L29.127 18.3333L21 7.92857L7 22L9 56L22.5 60.5L29.127 72H65.8271L82 62.5V72L115 69L174.568 72L183.064 60.5V72H234.376L257.144 67.0714L317.631 72L341 70L355.5 74.5L452.198 67.0714L457 60L461.713 72L546.327 67.0714L604.776 72L621.5 67.0714L620.5 64L634 58.3095L637.5 31L627 14.5L614.291 18.5L618.368 7.92857L604.776 4.64286L538.5 9.5L455.936 3L437.5 14L443 4.5L409 7.5L398 14L389.5 8L371.322 4.5V11.5L290.446 7.92857L286.028 15.5V7.92857L214.5 12L131.751 7.92857L117.139 18.3333L106.265 4.64286V18.3333L35.2437 7.92857Z" fill="#E0CBA8"/>
</svg>
